# xmcd
#
# Track frame offsets:
#	150
#	45216
#	88763
#	135183
#	180130
#	222800
#
# Disc length: 3598 seconds
#
# Revision: 1
# Processed by: cddbd v1.5.2PL0 Copyright (c) Steve Scherf et al.
# Submitted via: audiograbber 1.83.01
#
DISCID=3b0e0c06
DTITLE=Disney H他spiel / Sharpay압 Fabelhafte Welt
DYEAR=2011
DGENRE=H他spiel
TTITLE0=Disney / Sharpay압 Fabelhafte Welt  1
TTITLE1=Disney / Sharpay압 Fabelhafte Welt  2
TTITLE2=Disney / Sharpay압 Fabelhafte Welt  3
TTITLE3=Disney / Sharpay압 Fabelhafte Welt  4
TTITLE4=Disney / Sharpay압 Fabelhafte Welt  5
TTITLE5=Disney / Sharpay압 Fabelhafte Welt  6
EXTD=
EXTT0=
EXTT1=
EXTT2=
EXTT3=
EXTT4=
EXTT5=
PLAYORDER=
